<svg width="17" height="19" viewBox="0 0 17 19" fill="none" xmlns="http://www.w3.org/2000/svg">
<g clip-path="url(#clip0_4_7)">
<path d="M11.9 11.2812C10.8071 11.2812 10.289 11.875 8.5 11.875C6.71095 11.875 6.19286 11.2812 5.1 11.2812C2.28286 11.2812 0 13.5137 0 16.2687V17.2188C0 18.2004 0.817619 19 1.82143 19H15.1786C16.1824 19 17 18.2004 17 17.2188V16.2687C17 13.5137 14.7171 11.2812 11.9 11.2812ZM15.1786 17.2188H1.82143V16.2687C1.82143 14.5033 3.29476 13.0625 5.1 13.0625C5.65048 13.0625 6.55714 13.6562 8.5 13.6562C10.459 13.6562 11.3414 13.0625 11.9 13.0625C13.7052 13.0625 15.1786 14.5033 15.1786 16.2687V17.2188ZM8.5 10.6875C11.5195 10.6875 13.9643 8.29667 13.9643 5.34375C13.9643 2.39083 11.5195 0 8.5 0C5.48048 0 3.03571 2.39083 3.03571 5.34375C3.03571 8.29667 5.48048 10.6875 8.5 10.6875ZM8.5 1.78125C10.5076 1.78125 12.1429 3.38042 12.1429 5.34375C12.1429 7.30708 10.5076 8.90625 8.5 8.90625C6.49238 8.90625 4.85714 7.30708 4.85714 5.34375C4.85714 3.38042 6.49238 1.78125 8.5 1.78125Z" fill="#9FAFC1"/>
</g>
<defs>
<clipPath id="clip0_4_7">
<rect width="17" height="19" fill="white"/>
</clipPath>
</defs>
</svg>
