<svg width="597" height="427" viewBox="0 0 597 427" fill="none" xmlns="http://www.w3.org/2000/svg">
<rect width="597" height="427" fill="#EDF0F4"/>
<path d="M430.586 166.253C430.586 189.877 410.734 209.563 386.91 209.563C363.087 209.563 345.22 187.908 345.22 166.253C345.22 142.63 363.087 122.944 386.91 122.944C410.734 122.944 430.586 142.63 430.586 166.253ZM331.323 213.5C321.397 197.751 305.515 197.751 295.589 213.5L293.603 215.469C285.662 203.657 277.721 189.877 271.766 178.065C257.869 154.442 236.031 154.442 222.134 178.065C208.237 201.688 186.4 239.092 172.503 262.715C158.606 286.339 170.517 304.056 198.311 304.056H351.176C371.028 304.056 378.969 292.244 369.043 274.527C359.117 256.809 343.235 231.217 331.323 213.5Z" fill="#C9D3DD"/>
</svg>
